<svg width="9" height="5" viewBox="0 0 9 5" fill="none" xmlns="http://www.w3.org/2000/svg">
<path d="M0.182992 0.184683C0.300198 0.0664306 0.459141 0 0.62487 0C0.790598 0 0.949541 0.0664306 1.06675 0.184683L4.16051 3.30703L7.25428 0.184683C7.37215 0.0697819 7.53003 0.00620288 7.6939 0.00764006C7.85778 0.00907723 8.01454 0.0754155 8.13042 0.192367C8.2463 0.309318 8.31203 0.467524 8.31345 0.632912C8.31488 0.7983 8.25188 0.957635 8.13803 1.0766L4.60239 4.64491C4.48518 4.76316 4.32624 4.82959 4.16051 4.82959C3.99478 4.82959 3.83584 4.76316 3.71863 4.64491L0.182992 1.0766C0.0658225 0.958313 0 0.797902 0 0.630642C0 0.463383 0.0658225 0.302971 0.182992 0.184683Z" fill="#A1A1B4"/>
</svg>
